<svg id="Layer_1" data-name="Layer 1" xmlns="http://www.w3.org/2000/svg" viewBox="0 0 380 380"><defs><style>.cls-1,.cls-2{fill:#fff;}.cls-2{opacity:0.5;}</style></defs><title>WCC_Corporate_RGB_White</title><circle class="cls-1" cx="325.87" cy="87.94" r="20.8"/><circle class="cls-1" cx="243.14" cy="28.35" r="20.8"/><circle class="cls-1" cx="369.6" cy="190" r="10.4"/><circle class="cls-1" cx="307.83" cy="54.57" r="10.4"/><circle class="cls-2" cx="78.7" cy="49.19" r="10.4"/><circle class="cls-1" cx="178.76" cy="71.32" r="10.4"/><circle class="cls-1" cx="93.29" cy="38.69" r="10.4"/><circle class="cls-1" cx="126.64" cy="20.26" r="10.4"/><circle class="cls-1" cx="116.24" cy="60.94" r="10.4"/><circle class="cls-2" cx="368.06" cy="161.38" r="10.4"/><circle class="cls-1" cx="355.07" cy="117.1" r="10.4"/><circle class="cls-2" cx="324.08" cy="124.09" r="10.4"/><circle class="cls-1" cx="161.31" cy="31.75" r="20.8"/><circle class="cls-2" cx="144.13" cy="49.41" r="10.4"/><circle class="cls-2" cx="184.2" cy="38.69" r="10.4"/><circle class="cls-2" cx="213.3" cy="50.54" r="10.4"/><circle class="cls-1" cx="169.41" cy="11.02" r="10.4"/><circle class="cls-1" cx="201.87" cy="13.87" r="13.87"/><circle class="cls-1" cx="260.36" cy="87.94" r="10.4"/><circle class="cls-2" cx="248.24" cy="57.84" r="13.87"/><circle class="cls-2" cx="288.59" cy="43.97" r="13.87"/><circle class="cls-1" cx="353.6" cy="148.35" r="13.87"/><circle class="cls-1" cx="297.86" cy="85.19" r="13.87"/><circle class="cls-1" cx="278.52" cy="56.74" r="10.4"/><circle class="cls-2" cx="54.13" cy="292.06" r="20.8"/><circle class="cls-1" cx="136.86" cy="351.65" r="20.8"/><circle class="cls-2" cx="10.4" cy="190" r="10.4"/><circle class="cls-1" cx="72.17" cy="325.43" r="10.4"/><circle class="cls-1" cx="301.3" cy="330.81" r="10.4"/><circle class="cls-1" cx="201.24" cy="308.68" r="10.4"/><circle class="cls-2" cx="286.71" cy="341.31" r="10.4"/><circle class="cls-1" cx="253.36" cy="359.74" r="10.4"/><circle class="cls-1" cx="263.76" cy="319.06" r="10.4"/><circle class="cls-1" cx="11.94" cy="218.62" r="10.4"/><circle class="cls-1" cx="24.93" cy="262.9" r="10.4"/><circle class="cls-2" cx="55.92" cy="255.91" r="10.4"/><circle class="cls-2" cx="218.69" cy="348.25" r="20.8"/><circle class="cls-1" cx="235.87" cy="330.59" r="10.4"/><circle class="cls-1" cx="195.8" cy="341.31" r="10.4"/><circle class="cls-1" cx="166.7" cy="329.46" r="10.4"/><circle class="cls-1" cx="210.59" cy="368.98" r="10.4"/><circle class="cls-1" cx="178.13" cy="366.13" r="13.87"/><circle class="cls-1" cx="119.64" cy="292.06" r="10.4"/><circle class="cls-2" cx="131.76" cy="322.16" r="13.87"/><circle class="cls-1" cx="91.41" cy="336.03" r="13.87"/><circle class="cls-1" cx="26.4" cy="231.65" r="13.87"/><circle class="cls-1" cx="82.14" cy="294.81" r="13.87"/><circle class="cls-2" cx="101.48" cy="323.26" r="10.4"/><path class="cls-1" d="M232.33,203.74a18.84,18.84,0,1,1,0-27.46l13.81-14.73a39,39,0,1,0,0,56.92Z"/><path class="cls-1" d="M308,203.74a18.84,18.84,0,1,1,0-27.46l13.81-14.73a39,39,0,1,0,0,56.92Z"/><polygon class="cls-1" points="148.71 152.48 136.02 192.9 123.34 152.48 101.6 152.48 88.92 192.9 76.23 152.48 52.46 152.48 76.02 227.52 78.05 227.52 99.78 227.52 112.47 187.1 125.16 227.52 146.89 227.52 148.92 227.52 172.48 152.48 148.71 152.48"/></svg>