<?xml version="1.0" encoding="UTF-8"?>
<svg id="Layer_1" xmlns="http://www.w3.org/2000/svg" version="1.1" viewBox="0 0 250 250">
  <!-- Generator: Adobe Illustrator 29.6.1, SVG Export Plug-In . SVG Version: 2.1.1 Build 9)  -->
  <defs>
    <style>
      .st0 {
        fill: #ffb599;
      }

      .st1 {
        fill: #ff4801;
      }
    </style>
  </defs>
  <g>
    <path class="st1" d="M152.2,134c-2.2,2.1-5.1,3.3-8.4,3.3-6.8,0-12.3-5.5-12.3-12.3,0-6.8,5.5-12.3,12.3-12.3s6.2,1.3,8.4,3.3l9-9.6c-4.6-4.3-10.7-6.9-17.4-6.9-14.1,0-25.5,11.4-25.5,25.5s11.4,25.5,25.5,25.5c6.7,0,12.9-2.6,17.4-6.9l-9-9.6Z"/>
    <path class="st1" d="M201.6,134c-2.2,2.1-5.1,3.3-8.4,3.3-6.8,0-12.3-5.5-12.3-12.3,0-6.8,5.5-12.3,12.3-12.3s6.2,1.3,8.4,3.3l9-9.6c-4.6-4.3-10.7-6.9-17.4-6.9-14.1,0-25.5,11.4-25.5,25.5,0,14.1,11.4,25.5,25.5,25.5,6.7,0,12.9-2.6,17.4-6.9l-9-9.6Z"/>
  </g>
  <circle class="st1" cx="213.3" cy="58.4" r="13.6"/>
  <circle class="st1" cx="159.3" cy="19.4" r="13.6"/>
  <circle class="st1" cx="241.8" cy="125" r="6.8"/>
  <circle class="st1" cx="201.5" cy="36.6" r="6.8"/>
  <circle class="st0" cx="51.9" cy="33.1" r="6.8"/>
  <circle class="st1" cx="117.2" cy="47.5" r="6.8"/>
  <circle class="st1" cx="61.4" cy="26.2" r="6.8"/>
  <circle class="st1" cx="83.2" cy="14.2" r="6.8"/>
  <circle class="st1" cx="76.4" cy="40.7" r="6.8"/>
  <circle class="st0" cx="240.8" cy="106.3" r="6.8"/>
  <circle class="st1" cx="232.3" cy="77.4" r="6.8"/>
  <circle class="st0" cx="212.1" cy="82" r="6.8"/>
  <circle class="st1" cx="105.8" cy="21.7" r="13.6"/>
  <circle class="st0" cx="94.6" cy="33.2" r="6.8"/>
  <circle class="st0" cx="120.8" cy="26.2" r="6.8"/>
  <circle class="st0" cx="139.8" cy="33.9" r="6.8"/>
  <circle class="st1" cx="111.1" cy="8.1" r="6.8"/>
  <circle class="st1" cx="132.3" cy="10" r="9.1"/>
  <circle class="st1" cx="170.5" cy="58.4" r="6.8"/>
  <circle class="st0" cx="162.6" cy="38.7" r="9.1"/>
  <circle class="st0" cx="188.9" cy="29.6" r="9.1"/>
  <circle class="st1" cx="231.4" cy="97.8" r="9.1"/>
  <circle class="st1" cx="195" cy="56.6" r="9.1"/>
  <circle class="st1" cx="182.4" cy="38" r="6.8"/>
  <g>
    <circle class="st0" cx="35.9" cy="191.6" r="13.6"/>
    <circle class="st1" cx="89.9" cy="230.5" r="13.6"/>
    <circle class="st0" cx="7.3" cy="125" r="6.8"/>
    <circle class="st1" cx="47.6" cy="213.4" r="6.8"/>
    <circle class="st1" cx="197.2" cy="216.9" r="6.8"/>
    <circle class="st1" cx="131.9" cy="202.5" r="6.8"/>
    <circle class="st0" cx="187.7" cy="223.8" r="6.8"/>
    <circle class="st1" cx="165.9" cy="235.8" r="6.8"/>
    <circle class="st1" cx="172.7" cy="209.3" r="6.8"/>
    <circle class="st1" cx="8.3" cy="143.7" r="6.8"/>
    <circle class="st1" cx="16.8" cy="172.6" r="6.8"/>
    <circle class="st0" cx="37" cy="168" r="6.8"/>
    <circle class="st0" cx="143.3" cy="228.3" r="13.6"/>
    <circle class="st1" cx="154.5" cy="216.8" r="6.8"/>
    <circle class="st1" cx="128.4" cy="223.8" r="6.8"/>
    <circle class="st1" cx="109.4" cy="216" r="6.8"/>
    <circle class="st1" cx="138" cy="241.9" r="6.8"/>
    <circle class="st1" cx="116.8" cy="240" r="9.1"/>
    <circle class="st1" cx="78.6" cy="191.6" r="6.8"/>
    <circle class="st0" cx="86.5" cy="211.3" r="9.1"/>
    <circle class="st1" cx="60.2" cy="220.3" r="9.1"/>
    <circle class="st1" cx="17.7" cy="152.2" r="9.1"/>
    <circle class="st1" cx="54.1" cy="193.4" r="9.1"/>
    <circle class="st0" cx="66.8" cy="212" r="6.8"/>
  </g>
  <polygon class="st1" points="97.6 100.5 89.3 126.9 81 100.5 66.9 100.5 58.6 126.9 50.3 100.5 34.8 100.5 50.1 149.5 51.5 149.5 65.7 149.5 73.9 123.1 82.2 149.5 96.4 149.5 97.7 149.5 113.1 100.5 97.6 100.5"/>
</svg>